<svg width="180" height="20" viewBox="0 0 180 20" fill="none" xmlns="http://www.w3.org/2000/svg">
<path d="M6.9 19.175C5.61667 19.175 4.46667 18.9667 3.45 18.55C2.43333 18.1333 1.61667 17.5167 1 16.7C0.4 15.8833 0.0833334 14.9 0.0500001 13.75H4.6C4.66667 14.4 4.89167 14.9 5.275 15.25C5.65833 15.5833 6.15833 15.75 6.775 15.75C7.40833 15.75 7.90833 15.6083 8.275 15.325C8.64167 15.025 8.825 14.6167 8.825 14.1C8.825 13.6667 8.675 13.3083 8.375 13.025C8.09167 12.7417 7.73333 12.5083 7.3 12.325C6.88333 12.1417 6.28333 11.9333 5.5 11.7C4.36667 11.35 3.44167 11 2.725 10.65C2.00833 10.3 1.39167 9.78333 0.875 9.1C0.358333 8.41667 0.1 7.525 0.1 6.425C0.1 4.79167 0.691667 3.51667 1.875 2.6C3.05833 1.66667 4.6 1.2 6.5 1.2C8.43333 1.2 9.99167 1.66667 11.175 2.6C12.3583 3.51667 12.9917 4.8 13.075 6.45H8.45C8.41667 5.88333 8.20833 5.44167 7.825 5.125C7.44167 4.79167 6.95 4.625 6.35 4.625C5.83333 4.625 5.41667 4.76667 5.1 5.05C4.78333 5.31667 4.625 5.70833 4.625 6.225C4.625 6.79167 4.89167 7.23333 5.425 7.55C5.95833 7.86667 6.79167 8.20833 7.925 8.575C9.05833 8.95833 9.975 9.325 10.675 9.675C11.3917 10.025 12.0083 10.5333 12.525 11.2C13.0417 11.8667 13.3 12.725 13.3 13.775C13.3 14.775 13.0417 15.6833 12.525 16.5C12.025 17.3167 11.2917 17.9667 10.325 18.45C9.35833 18.9333 8.21667 19.175 6.9 19.175ZM17.5809 12C17.5809 10.5667 17.8475 9.30833 18.3809 8.225C18.9309 7.14167 19.6725 6.30833 20.6059 5.725C21.5392 5.14167 22.5809 4.85 23.7309 4.85C24.7142 4.85 25.5725 5.05 26.3059 5.45C27.0559 5.85 27.6309 6.375 28.0309 7.025V5.05H32.3059V19H28.0309V17.025C27.6142 17.675 27.0309 18.2 26.2809 18.6C25.5475 19 24.6892 19.2 23.7059 19.2C22.5725 19.2 21.5392 18.9083 20.6059 18.325C19.6725 17.725 18.9309 16.8833 18.3809 15.8C17.8475 14.7 17.5809 13.4333 17.5809 12ZM28.0309 12.025C28.0309 10.9583 27.7309 10.1167 27.1309 9.5C26.5475 8.88333 25.8309 8.575 24.9809 8.575C24.1309 8.575 23.4059 8.88333 22.8059 9.5C22.2225 10.1 21.9309 10.9333 21.9309 12C21.9309 13.0667 22.2225 13.9167 22.8059 14.55C23.4059 15.1667 24.1309 15.475 24.9809 15.475C25.8309 15.475 26.5475 15.1667 27.1309 14.55C27.7309 13.9333 28.0309 13.0917 28.0309 12.025ZM55.6986 4.9C57.432 4.9 58.807 5.425 59.8236 6.475C60.857 7.525 61.3736 8.98333 61.3736 10.85V19H57.1236V11.425C57.1236 10.525 56.882 9.83333 56.3986 9.35C55.932 8.85 55.282 8.6 54.4486 8.6C53.6153 8.6 52.957 8.85 52.4736 9.35C52.007 9.83333 51.7736 10.525 51.7736 11.425V19H47.5236V11.425C47.5236 10.525 47.282 9.83333 46.7986 9.35C46.332 8.85 45.682 8.6 44.8486 8.6C44.0153 8.6 43.357 8.85 42.8736 9.35C42.407 9.83333 42.1736 10.525 42.1736 11.425V19H37.8986V5.05H42.1736V6.8C42.607 6.21667 43.1736 5.75833 43.8736 5.425C44.5736 5.075 45.3653 4.9 46.2486 4.9C47.2986 4.9 48.232 5.125 49.0486 5.575C49.882 6.025 50.532 6.66667 50.9986 7.5C51.482 6.73333 52.1403 6.10833 52.9736 5.625C53.807 5.14167 54.7153 4.9 55.6986 4.9ZM67.8385 1.45H72.2135L69.4135 8.15H66.5385L67.8385 1.45ZM82.8998 19.2C81.6831 19.2 80.5998 18.9917 79.6498 18.575C78.6998 18.1583 77.9498 17.5917 77.3998 16.875C76.8498 16.1417 76.5415 15.325 76.4748 14.425H80.6998C80.7498 14.9083 80.9748 15.3 81.3748 15.6C81.7748 15.9 82.2665 16.05 82.8498 16.05C83.3831 16.05 83.7915 15.95 84.0748 15.75C84.3748 15.5333 84.5248 15.2583 84.5248 14.925C84.5248 14.525 84.3165 14.2333 83.8998 14.05C83.4831 13.85 82.8081 13.6333 81.8748 13.4C80.8748 13.1667 80.0415 12.925 79.3748 12.675C78.7081 12.4083 78.1331 12 77.6498 11.45C77.1665 10.8833 76.9248 10.125 76.9248 9.175C76.9248 8.375 77.1415 7.65 77.5748 7C78.0248 6.33333 78.6748 5.80833 79.5248 5.425C80.3915 5.04167 81.4165 4.85 82.5998 4.85C84.3498 4.85 85.7248 5.28333 86.7248 6.15C87.7415 7.01667 88.3248 8.16667 88.4748 9.6H84.5248C84.4581 9.11667 84.2415 8.73333 83.8748 8.45C83.5248 8.16667 83.0581 8.025 82.4748 8.025C81.9748 8.025 81.5915 8.125 81.3248 8.325C81.0581 8.50833 80.9248 8.76667 80.9248 9.1C80.9248 9.5 81.1331 9.8 81.5498 10C81.9831 10.2 82.6498 10.4 83.5498 10.6C84.5831 10.8667 85.4248 11.1333 86.0748 11.4C86.7248 11.65 87.2915 12.0667 87.7748 12.65C88.2748 13.2167 88.5331 13.9833 88.5498 14.95C88.5498 15.7667 88.3165 16.5 87.8498 17.15C87.3998 17.7833 86.7415 18.2833 85.8748 18.65C85.0248 19.0167 84.0331 19.2 82.8998 19.2ZM123.839 0.5V19H119.564V0.5H123.839ZM128.587 12C128.587 10.5667 128.853 9.30833 129.387 8.225C129.937 7.14167 130.678 6.30833 131.612 5.725C132.545 5.14167 133.587 4.85 134.737 4.85C135.72 4.85 136.578 5.05 137.312 5.45C138.062 5.85 138.637 6.375 139.037 7.025V5.05H143.312V19H139.037V17.025C138.62 17.675 138.037 18.2 137.287 18.6C136.553 19 135.695 19.2 134.712 19.2C133.578 19.2 132.545 18.9083 131.612 18.325C130.678 17.725 129.937 16.8833 129.387 15.8C128.853 14.7 128.587 13.4333 128.587 12ZM139.037 12.025C139.037 10.9583 138.737 10.1167 138.137 9.5C137.553 8.88333 136.837 8.575 135.987 8.575C135.137 8.575 134.412 8.88333 133.812 9.5C133.228 10.1 132.937 10.9333 132.937 12C132.937 13.0667 133.228 13.9167 133.812 14.55C134.412 15.1667 135.137 15.475 135.987 15.475C136.837 15.475 137.553 15.1667 138.137 14.55C138.737 13.9333 139.037 13.0917 139.037 12.025ZM148.054 12.025C148.054 10.575 148.346 9.30833 148.929 8.225C149.529 7.14167 150.354 6.30833 151.404 5.725C152.471 5.14167 153.688 4.85 155.054 4.85C156.804 4.85 158.263 5.30833 159.429 6.225C160.613 7.14167 161.388 8.43333 161.754 10.1H157.204C156.821 9.03333 156.079 8.5 154.979 8.5C154.196 8.5 153.571 8.80833 153.104 9.425C152.638 10.025 152.404 10.8917 152.404 12.025C152.404 13.1583 152.638 14.0333 153.104 14.65C153.571 15.25 154.196 15.55 154.979 15.55C156.079 15.55 156.821 15.0167 157.204 13.95H161.754C161.388 15.5833 160.613 16.8667 159.429 17.8C158.246 18.7333 156.788 19.2 155.054 19.2C153.688 19.2 152.471 18.9083 151.404 18.325C150.354 17.7417 149.529 16.9083 148.929 15.825C148.346 14.7417 148.054 13.475 148.054 12.025ZM179.691 11.8C179.691 12.2 179.666 12.6167 179.616 13.05H169.941C170.008 13.9167 170.283 14.5833 170.766 15.05C171.266 15.5 171.875 15.725 172.591 15.725C173.658 15.725 174.4 15.275 174.816 14.375H179.366C179.133 15.2917 178.708 16.1167 178.091 16.85C177.491 17.5833 176.733 18.1583 175.816 18.575C174.9 18.9917 173.875 19.2 172.741 19.2C171.375 19.2 170.158 18.9083 169.091 18.325C168.025 17.7417 167.191 16.9083 166.591 15.825C165.991 14.7417 165.691 13.475 165.691 12.025C165.691 10.575 165.983 9.30833 166.566 8.225C167.166 7.14167 168 6.30833 169.066 5.725C170.133 5.14167 171.358 4.85 172.741 4.85C174.091 4.85 175.291 5.13333 176.341 5.7C177.391 6.26667 178.208 7.075 178.791 8.125C179.391 9.175 179.691 10.4 179.691 11.8ZM175.316 10.675C175.316 9.94167 175.066 9.35833 174.566 8.925C174.066 8.49167 173.441 8.275 172.691 8.275C171.975 8.275 171.366 8.48333 170.866 8.9C170.383 9.31667 170.083 9.90833 169.966 10.675H175.316Z" fill="#0158DA"/>
<path d="M114.838 7.1C114.838 8.11667 114.605 9.05 114.138 9.9C113.671 10.7333 112.955 11.4083 111.988 11.925C111.021 12.4417 109.821 12.7 108.388 12.7H105.738V19H101.463V1.45H108.388C109.788 1.45 110.971 1.69167 111.938 2.175C112.905 2.65833 113.63 3.325 114.113 4.175C114.596 5.025 114.838 6 114.838 7.1ZM108.063 9.3C108.88 9.3 109.488 9.10833 109.888 8.725C110.288 8.34167 110.488 7.8 110.488 7.1C110.488 6.4 110.288 5.85833 109.888 5.475C109.488 5.09167 108.88 4.9 108.063 4.9H105.738V9.3H108.063Z" fill="#6A95EA"/>
</svg>
